<svg width="14" height="20" viewBox="0 0 14 20" fill="none" xmlns="http://www.w3.org/2000/svg">
<circle cx="7" cy="10" r="7" fill="#DAF1F9"/>
<circle cx="7" cy="10" r="6.5" stroke="#111111" stroke-opacity="0.5"/>
<path d="M6.49595 8.19H7.50395V14H6.49595V8.19ZM6.49595 6.496C6.35595 6.356 6.28595 6.188 6.28595 5.992C6.28595 5.796 6.35595 5.628 6.49595 5.488C6.63595 5.348 6.80395 5.278 6.99995 5.278C7.19595 5.278 7.36395 5.348 7.50395 5.488C7.64395 5.628 7.71395 5.796 7.71395 5.992C7.71395 6.188 7.64395 6.356 7.50395 6.496C7.36395 6.636 7.19595 6.706 6.99995 6.706C6.80395 6.706 6.63595 6.636 6.49595 6.496Z" fill="#111111" fill-opacity="0.5"/>
</svg>
